<svg id="Layer_1" data-name="Layer 1" xmlns="http://www.w3.org/2000/svg" viewBox="0 0 246.72 246.72"><defs><style>.cls-1{fill:#424242;}</style></defs><path class="cls-1" d="M123.36,10a434.92,434.92,0,0,1,67.42,5.28,48.72,48.72,0,0,1,40.66,40.66,432.47,432.47,0,0,1,0,134.84,48.72,48.72,0,0,1-40.66,40.66,434.92,434.92,0,0,1-67.42,5.28,434.83,434.83,0,0,1-67.42-5.28,48.72,48.72,0,0,1-40.66-40.66,432.47,432.47,0,0,1,0-134.84A48.72,48.72,0,0,1,55.94,15.28,434.83,434.83,0,0,1,123.36,10m0-10a443.29,443.29,0,0,0-69,5.4h0a58.85,58.85,0,0,0-49,49h0a443.28,443.28,0,0,0,0,138h0a58.85,58.85,0,0,0,49,49h0a443.29,443.29,0,0,0,69,5.4,443.29,443.29,0,0,0,69-5.4h0a58.85,58.85,0,0,0,49-49h0a443.28,443.28,0,0,0,0-138h0a58.85,58.85,0,0,0-49-49h0a443.29,443.29,0,0,0-69-5.4Z"/></svg>