<svg id="Layer_1" data-name="Layer 1" xmlns="http://www.w3.org/2000/svg" viewBox="0 0 246.72 246.72"><defs><style>.cls-1{fill:#fc326a;}.cls-2{fill:none;stroke:#fff;stroke-linecap:round;stroke-linejoin:round;stroke-width:32px;}</style></defs><path class="cls-1" d="M192.34,241.32h0a443.28,443.28,0,0,1-138,0h0a58.85,58.85,0,0,1-49-49h0a443.28,443.28,0,0,1,0-138h0a58.85,58.85,0,0,1,49-49h0a443.28,443.28,0,0,1,138,0h0a58.85,58.85,0,0,1,49,49h0a443.28,443.28,0,0,1,0,138h0A58.85,58.85,0,0,1,192.34,241.32Z"/><polyline class="cls-2" points="60.29 114.77 111.03 170.11 189.53 90.4"/></svg>