<svg xmlns="http://www.w3.org/2000/svg" viewBox="0 0 590.24 722.69"><defs><style>.cls-1{fill:#2ad7db;}.cls-2{fill:#2aa5c5;}.cls-3{fill:#fc9a3a;}.cls-4{fill:#fff;}.cls-5{fill:#fa3268;}</style></defs><g id="Layer_5" data-name="Layer 5"><path class="cls-1" d="M528.59,322.34c46.67,99.9,88.32,252.66,10.32,339.74-33.27-4.59-69.65-18.59-107.28-36.35l-18.79-52.31,45.33-98.87,12,24.39c-4.73-64.13,15.1-115-21-159.6l1.08-23.79Z"/><path class="cls-2" d="M470.2,498.94s4.87,100.63-38.57,126.79-28.38-84.68-28.38-84.68l39-62.06,15.9-4.44Z"/><path class="cls-1" d="M319.56,385.89s-17.93-1.5-26.25-31.63-10.64-47.58-10.64-47.58L161.05,317.16s32.66,73.16,2.81,81.14,80.68,102.85,80.68,102.85l83.35-28.67V408.05Z"/><path class="cls-3" d="M41.2,575,68.48,722.69H437.4c1.15-54.76,2.44-104.15-11-167.68,16.43-23.68,29.3-47.88,35.23-73.11a25.34,25.34,0,0,0-3.14-19.2c-15.7-25.31-35.8-49.27-59.62-72.08-24.24-6.35-48.19-10.45-71.75-13.93a8.69,8.69,0,0,0-9.89,9.57c2.76,23.95,4.08,78.65-39.54,88.29-45.62,10.09-90.27-52.41-105.41-76.2a14.59,14.59,0,0,0-16.13-6.23c-26.64,7.21-53.23,18-81,30.26A54.8,54.8,0,0,0,46,452.66a561.82,561.82,0,0,0-25.34,86.66,19.38,19.38,0,0,0,2.51,14.31C27.46,560.54,34.43,567.81,41.2,575Z"/><path class="cls-1" d="M139.2,722.69c-2.1-28.59-5.22-59.78-8.48-91.35a48,48,0,0,0-6.57-19.72c-16.45-27.38-40.17-47-70.3-59.83a8.49,8.49,0,0,0-11.55,5.88c-13.64,57.55-21.16,111.63-21.93,165Z"/><path class="cls-2" d="M161.35,317.83l1.42-.82,55.09-4.75,66.69,5.3c1,5,2.4,11.74,4.39,19.93-4.75,17.89-10.81,33.9-20,45.39a22.13,22.13,0,0,1-21.4,7.86c-26.69-5-51.41-15.41-73.34-33.57C170.37,339.18,162.91,321.43,161.35,317.83Z"/><path class="cls-1" d="M316.36,231.17c-3.28,50.34-17.87,88.46-49.46,108.21a39.3,39.3,0,0,1-26.44,5.46c-19.25-2.77-55.63-9.38-72.17-21.46-23-16.85-40.79-58.52-40.79-58.52s-28.81,19.51-40.78-30.59,16-39.9,14.63-39.9S137.7,98.61,137.7,98.61L233,88l58.51,25.27,16.85,47s25.71-17.29,28.37,31S316.36,231.17,316.36,231.17Z"/><path class="cls-3" d="M310.29,176c18.95-23.64,18.4-45.5-4.86-65.28C350.21,86.23,352.71,23,248.38,46.6c9.47-48.52-29.75-43.78-77.73,13C104,55.84,54.21,154.47,101.35,194.37s62.8-84.23,62.8-84.23c21,31.92,120.22,55.82,103.74,16,20.15.54,29.8,24.66,35.83,48.46A3.76,3.76,0,0,0,310.29,176Z"/><path class="cls-2" d="M184,202.21q-11.21-7.67-19.58-2.58a2.93,2.93,0,0,0,0,5c8.64,5,16.61,24.32-2.86,27-22.9,3.1-20.66-29.3-7.24-39.16,15.58-10.67,28.19-4,33.92,5.88a2.9,2.9,0,0,1,.33,2h0A2.94,2.94,0,0,1,184,202.21Z"/><path class="cls-2" d="M296.86,193.91c-4.58-3.72-8.81-5.21-12.43-5.06a1.69,1.69,0,0,0-1.14,2.87c5.62,6,6.31,21.53-8.27,22-12.58.42-15.2-25.93-3-32,14-6.38,24.92,1,28.66,9.3a2.38,2.38,0,0,1,.06,1.74h0A2.43,2.43,0,0,1,296.86,193.91Z"/><path class="cls-2" d="M232.73,186l28.43,37.2a8.6,8.6,0,0,1-.12,10.61L249.9,247.7a5,5,0,0,1-8.74-1.65l-17.24-55.54a5,5,0,0,1,1.91-5.6h0A5,5,0,0,1,232.73,186Z"/><path class="cls-1" d="M346.92,253.54a138,138,0,0,0,.06,31.27,2.08,2.08,0,0,1-3.1,2c-3.93-2.24-9.71-7.38-9.34-18.19.36-10.59,5.68-15.23,9.36-17.19A2.08,2.08,0,0,1,346.92,253.54Z"/><path class="cls-3" d="M319.21,275.3l5.7,1.45a6.31,6.31,0,0,0,7.78-5.08l7.91-47.48a14.76,14.76,0,0,0-2.27-10.6l-1.33-2a14.79,14.79,0,0,0-14.38-6.43l-.14,0a14.76,14.76,0,0,0-12,10.36h0A14.75,14.75,0,0,0,316.27,232l1.53,1a5.18,5.18,0,0,1,2.19,5.17l-5.3,30.1A6.12,6.12,0,0,0,319.21,275.3Z"/><path class="cls-2" d="M294.73,646.53c2.49,0,8.33-1.66,9-4.18C332.53,532.84,329.8,398.2,326.43,269a5.61,5.61,0,0,0-5.75-5.46c-3.09.08-4.11,2.65-4.1,5.75.47,140.52,1.17,262.05-27.27,370.2a5.61,5.61,0,0,0,4,6.85A5.9,5.9,0,0,0,294.73,646.53Z"/><path class="cls-1" d="M522.06,322.94s-66.12,20.67-83.71,21.86S455,317.55,455,317.55Z"/><path class="cls-1" d="M528.27,228.51c-14.63-21.5-24.66-67.32-51.42-49.43-11.4-8.26-20.33-2.34-29.26,3.54-11.42-4.47-30.52,4.95-49.44,14"/><path class="cls-2" d="M565.87,235.4c13,17.56,15,42.87,5.86,63.23-7.67,17.08-25.83,27.59-45.18,26.45L384,316.71a49.05,49.05,0,0,1-32.91-15.24l-4.83-5.16A10.84,10.84,0,0,0,333,294.59c-5.33,3-10.78,2.06-16.34-2.42a14.71,14.71,0,0,1-4.76-6.86,62.88,62.88,0,0,1-1.63-32.77,14.7,14.7,0,0,1,10.26-11.19c4.82-1.37,9.83-.26,15,2.86a10.89,10.89,0,0,0,11.28-.21l22.42-14a49.68,49.68,0,0,1,24.35-7.46l133.15-5.23C542.06,216.68,557,223.33,565.87,235.4Z"/><path class="cls-1" d="M498.13,198.14s-33.43,76.92-60.65,76-2-34.15,3.46-55.43S498.13,198.14,498.13,198.14Z"/><path class="cls-1" d="M457.75,191.11s-30.94,78-58.78,78.79.24-32.66,4.57-54.24S457.75,191.11,457.75,191.11Z"/><path class="cls-1" d="M462.36,207s-75.25,37.71-96.19,19.34,20.64-22.54,41-34C426.39,181.59,462.36,207,462.36,207Z"/><path class="cls-1" d="M542.3,236.13c-26.92-.58-22.9,73.33.73,73.22S570.87,236.76,542.3,236.13Z"/><path class="cls-4" d="M515.5,239.53a68.9,68.9,0,0,0-5.13,19.31A6.58,6.58,0,0,1,500,263.19c-.45-.32-.9-.67-1.34-1.05a6.26,6.26,0,0,1-2.19-4.95,44.9,44.9,0,0,1,7.14-23.53,6.56,6.56,0,0,1,5.43-2.91h.54A6.38,6.38,0,0,1,515.5,239.53Z"/><path class="cls-3" d="M509.38,302.2l-.11-.23c-2.8-6.11-9-10.13-15.91-10.85-28.64-3-59.33-3.65-91.36-2.75-6.72.19-11.08,6.9-8.26,12.77h0a14.53,14.53,0,0,0,11.51,8c33.64,3.92,65.5,6.24,94.8,6.28C507.17,315.47,512.15,308.5,509.38,302.2Z"/><path class="cls-1" d="M452.44,343.43s-25.27,5.76-36.47-2.22-56.2-47.7-45.27-54.75c17-10.94,29.41,8.51,62.82,24.86,30.69,15,40,20.38,41.33,21.16a.1.1,0,0,1,0,.19Z"/><path class="cls-5" d="M426.36,555a618.16,618.16,0,0,0-16.25-60.57,2.19,2.19,0,0,1,3.7-2.16c12.44,13.56,23.78,26.31,29.77,35.08A308.19,308.19,0,0,1,426.36,555Z"/><path class="cls-5" d="M62,555.5c-14.32-6.22-28.67-12.66-41.81-12.07-1.33,8.68,6.57,18.72,19,29.43"/><path class="cls-2" d="M42.3,557.67a8.49,8.49,0,0,1,11.55-5.88c30.13,12.82,53.85,32.45,70.3,59.83a47.86,47.86,0,0,1,6.57,19.72c1.25,12.1,2.48,24.14,3.63,36h0s-49.5-58.85-101.1-67.23Q37.2,579.17,42.3,557.67Z"/><path class="cls-2" d="M193.12,413.37c37,64.53,88.84,172.8,101,254.79,3,20.42,5.51,38.49,7.55,54.53h15c-2.08-17.06-4.68-36.37-7.93-58.24-12.44-83.76-60.91-178.65-98.44-244.05-40.57-70.68-81.21-121-81.6-121.49a5.6,5.6,0,1,0-9,6.67C120.13,306.09,152.86,343.23,193.12,413.37Z"/><path class="cls-3" d="M131.44,305l-4.89,4.11a6.84,6.84,0,0,1-10-1.29L86.43,265.15a16,16,0,0,1-2.78-11.43l.36-2.58a16,16,0,0,1,11-13.06l.15-.05a16,16,0,0,1,16.64,4.43h0a16,16,0,0,1,2.07,18.83l-1,1.74a5.61,5.61,0,0,0,.3,6.07L132.55,296A6.63,6.63,0,0,1,131.44,305Z"/><path class="cls-1" d="M324.27,609.07c.07,18.9-.7,36.4-3.76,50A15.1,15.1,0,0,1,309,670.81a71.72,71.72,0,0,1-16.32.74,15.2,15.2,0,0,1-13.85-11.69A348.9,348.9,0,0,1,270.21,614c-1-8,4.06-15.58,11.58-17.31a127.33,127.33,0,0,1,27.29-3.33C317.41,593.27,324.25,600.31,324.27,609.07Z"/></g></svg>