<svg xmlns="http://www.w3.org/2000/svg" viewBox="0 0 590.24 722.69"><defs><style>.cls-1{fill:#fc9a3a;}.cls-2{fill:#2aa5c5;}.cls-3{fill:#fa3268;}.cls-4{fill:#2ad7db;}.cls-5{fill:none;stroke:#2aa5c5;stroke-linecap:round;stroke-miterlimit:10;stroke-width:10px;}</style></defs><g id="Layer_5" data-name="Layer 5"><path class="cls-1" d="M362.32,320.08c3.72-26.59,45.2-58,45.2-58V235L224.59,114.82S210.76,153.1,198,166.4s-40.95,13.29-45.73,21.27,14.36,18.61,20.74,32.44-13.83,43.07-8.51,65.94,79.77,48.92,89.34,57.43c9,8,13.33,59.37-54.54,138.08,65.3-21,151.45-76.82,174.2-92C366.46,369.54,359.77,338.31,362.32,320.08Z"/><path class="cls-2" d="M240.78,84.41s-3.83-40.59,63.71-43,153.82,48.66,143.05,136.8-34.7,67.8-34.7,67.8L231,108Z"/><path class="cls-2" d="M244.86,86.43s-39.48-18.94-62.81,8.38c-10.65,12.47-14.65,24.1-15.86,33.07a3.07,3.07,0,0,1-6,.4c-4.69-17.13-5.21-43.4,25.64-61.39C235.09,38.17,249,86.43,249,86.43Z"/><path class="cls-2" d="M427.6,264s-28.69,106.27,11.76,163.81a2.43,2.43,0,0,0,4.41-1.57c-.83-12.66-.07-37.69,14.54-62.13C479.05,329.39,427.6,264,427.6,264Z"/><path class="cls-2" d="M427.6,264c-19.22,60.23,9.89,172.46,73.93,194.31a2.66,2.66,0,0,0,2.82-4.29c-45.24-49.23,60-133.92,42.9-201.59-18-71-92.13-53.15-92.13-53.15Z"/><path class="cls-3" d="M422.78,268.82l.18.05a11.38,11.38,0,0,0,8.62-1.65c22.25-14.39,33.56-37.6,29.46-61.43a11.73,11.73,0,0,0-3.57-6.53,46,46,0,0,0-9.23-6.7,11.82,11.82,0,0,0-17,6.93l-16.77,54.4A11.73,11.73,0,0,0,422.78,268.82Z"/><path class="cls-3" d="M231,187.84c7.64-3,14.46-1.51,18.63,1.09a3.69,3.69,0,0,1,.57,5.77c-6.79,6.49-9.81,25,8.27,27.56,22.13,3.17,23.45-25.15,6.43-37-12.22-8.5-28.62-3.84-35.41-1.31a2.09,2.09,0,0,0-.66,3.51h0A2.14,2.14,0,0,0,231,187.84Z"/><path class="cls-2" d="M347.63,276.34s-2.39,28.72,31.71,22.94,20.34-41.88,20.34-41.88l-14.16-13.56Z"/><path class="cls-2" d="M369,298.19s-17.62,43.51,19.95,39.57a2.41,2.41,0,0,0,1-4.47c-13.29-7.89-20.62-18.73-16.75-35.1Z"/><path class="cls-4" d="M170.14,245.37S95.05,196,74.75,228.09c-21.3,33.68,6.18,54,25,51.57,17-2.2,25-23.07,25-23.07l39.41,12.25Z"/><circle class="cls-4" cx="79.53" cy="216.08" r="11.8"/><path class="cls-4" d="M221.34,132.41c65.5,21.74,122.49,69.71,175.79,133.78a8.17,8.17,0,0,0,10.05,2.07c7.32-3.83,13.79-9.63,19.87-16.34a17.55,17.55,0,0,0,1.95-21C384.6,159.08,321.05,111,242.09,82.14a8.23,8.23,0,0,0-9.25,2.55c-9,11.27-15.6,23.82-17.07,39.07A8.23,8.23,0,0,0,221.34,132.41Z"/><path class="cls-3" d="M354.21,218s42.28-17.81,38,15.16-43.6,57.43-56.63,48.39L330,277.14Z"/><path class="cls-2" d="M115.23,249c0,10.58-9.3,19.19-19.88,19.19s-19.66-9.58-19.66-20.16,9.39-20.16,20-20.16S115.23,238.46,115.23,249Z"/><path class="cls-4" d="M94,260c-6.43-.48-11.25-6.53-10.77-13s6.72-11.52,13.15-11,11.83,6.62,11.35,13.05S100.41,260.52,94,260Z"/><path class="cls-3" d="M138.43,722.69H415.1c-2.28-132.53-6.54-312.93-12.83-315.15-16.35-5.76-25.55-8.74-28.77-17.94-22.75,15.14-108.9,70.92-174.2,92q-6.81,7.89-14.59,16.14c-83,87.78-54.24,150-46.8,189.31C139.93,697.69,139.76,710.17,138.43,722.69Z"/><path class="cls-1" d="M326,722.69H469.81c-.29-67.71-5-141.13-1.27-190.69,5.32-70.2-28.06-133.33-86-124.17-66.34,9.83-60.76,89.6-49.06,164.05C342.12,626.91,332.75,664.51,326,722.69Z"/><path class="cls-5" d="M79.53,216.08S22.71,294,76.62,389.6c59.83,106.1,208.59,63.82,298.46,2.73"/></g></svg>