<?xml version="1.0" encoding="utf-8"?>
<!-- Generator: Adobe Illustrator 24.1.1, SVG Export Plug-In . SVG Version: 6.00 Build 0)  -->
<svg version="1.1" id="Layer_1" xmlns="http://www.w3.org/2000/svg" xmlns:xlink="http://www.w3.org/1999/xlink" x="0px" y="0px"
	 viewBox="0 0 201.73 46.82" style="enable-background:new 0 0 201.73 46.82;" xml:space="preserve">
<style type="text/css">
	.st0{fill:#F9376C;}
	.st1{fill:#1D1D1B;}
	.st2{fill:#E30613;}
	.st3{fill:#FFFFFF;}
	.st4{fill:none;stroke:#F9376C;stroke-width:1.5;stroke-miterlimit:10;}
	.st5{fill:none;stroke:#F9376C;stroke-width:2;stroke-miterlimit:10;}
	.st6{fill:#312783;}
	.st7{fill:#009FE3;}
	.st8{fill:none;stroke:#3AD9DC;stroke-width:2;stroke-miterlimit:10;}
	.st9{fill:none;stroke:#FD9C41;stroke-width:2;stroke-miterlimit:10;}
	.st10{fill:none;stroke:#F9376C;stroke-width:2;stroke-linecap:round;stroke-miterlimit:10;}
</style>
<path class="st0" d="M58.19,11.49c-2.86,0-4.43,1.63-5.49,3.76l-5.44,10.82l-4.65-10.65c-1.12-2.52-2.69-3.92-5.33-3.92h-0.67
	c0,0-0.01,0-0.01,0c-2.94,0.01-8.22,0.35-10.36,3.59c-2.3-2.19-5.94-3.59-11.38-3.59C6.67,11.49,0,16.32,0,23.1
	c0,3.81,1.96,6.5,5.27,8.07C1.85,32.46,0,35.21,0,38.58c0,4.6,3.08,8.24,9.31,8.24h13.33c5.21,0,8.41-0.82,8.41-5.02
	c0-4.21-3.2-5.02-8.41-5.02h-7.67c-1.29,0-1.85-1.26-1.85-2.1c0-0.84,0.56-2.16,1.85-2.16c8.24,0,14.3-2.75,14.3-10.54
	c0-1.91,0.45-2.3,1.07-2.3c0.01,0,0.01,0,0.02,0c1.02,0,1.93,0.63,2.34,1.56c0.5,1.15,1.15,2.65,1.26,2.89L37,31.18
	c0.84,1.91,1.12,3.08,1.12,3.81c0,1.23-0.56,1.96-2.07,2.52c-1.4,0.5-2.58,1.4-2.58,3.81v1.01c0,2.97,1.91,4.49,6.78,4.49h1.35
	c5.66,0,9.08-2.86,11.66-8.52l8.41-18.73c0.78-1.68,1.07-2.8,1.07-3.81C62.74,13.74,61.56,11.49,58.19,11.49z M14.86,24.56
	c-1.46,0-2.69-1.07-2.69-2.69c0-1.63,1.23-2.75,2.69-2.75c1.51,0,2.69,1.12,2.69,2.75C17.55,23.49,16.37,24.56,14.86,24.56z"/>
<path class="st0" d="M71.76,11.49c2.92,0,4.43,1.91,4.54,3.81c2.02-2.35,4.93-3.81,8.3-3.81c2.86,0,6.06,1.12,8.02,3.76
	c1.96-2.3,4.77-3.76,8.02-3.76c4.54,0,9.53,2.92,9.53,10.43V34.6c0,3.87-2.3,5.78-5.21,5.78h-1.46c-2.92,0-5.21-1.91-5.21-5.78
	v-9.98c0-1.74-0.67-2.97-2.07-2.97c-1.46,0-2.97,1.4-2.97,4.65v8.3c0,3.87-2.3,5.78-5.21,5.78h-1.46c-2.92,0-5.21-1.91-5.21-5.78
	v-9.98c0-1.74-0.67-2.97-2.07-2.97c-1.46,0-2.97,1.4-2.97,4.65v8.3c0,3.87-2.3,5.78-5.21,5.78h-1.46c-2.92,0-5.21-1.91-5.21-5.78
	V17.27c0-3.87,2.3-5.78,5.21-5.78H71.76z"/>
<path class="st0" d="M124.33,13.91c1.74-1.51,3.92-2.41,6.45-2.41c6.73,0,11.16,5.94,11.16,14.47c0,8.47-4.43,14.41-11.16,14.41
	c-2.8,0-5.16-1.07-7.01-2.92c-0.84,1.96-2.58,2.92-4.65,2.92h-1.46c-2.92,0-5.21-1.91-5.21-5.78V5.78c0-3.87,2.3-5.78,5.21-5.78
	h1.46c2.92,0,5.21,1.91,5.21,5.78V13.91z M129.66,25.96c0-3.08-1.01-4.6-2.75-4.6c-1.57,0-2.58,1.51-2.58,4.6
	c0,3.14,1.01,4.65,2.58,4.65C128.65,30.61,129.66,29.1,129.66,25.96z"/>
<path class="st0" d="M187.27,11.55c-5.54,0-10.37,2.88-12.8,7.49c-0.44,0.83,0.16,1.83,1.1,1.83h8.7h1.78c2.82,0,5.12,2.1,5.12,5.12
	c0,3-2.3,5.1-5.12,5.1h-1.78h-8.71c-0.94,0-1.54,1-1.1,1.83c2.43,4.61,7.26,7.49,12.81,7.49c7.96,0,14.47-5.94,14.47-14.41
	C201.73,17.49,195.23,11.55,187.27,11.55z"/>
<path class="st0" d="M143.88,26.02c0-8.52,6.5-14.47,14.47-14.47c7.96,0,14.47,5.94,14.47,14.47c0,8.47-6.5,14.41-14.47,14.41
	C150.38,40.43,143.88,34.48,143.88,26.02z"/>
</svg>
