<svg id="Layer_1" data-name="Layer 1" xmlns="http://www.w3.org/2000/svg" viewBox="0 0 580.13 296.04"><defs><style>.cls-1{fill:#fff;}</style></defs><path class="cls-1" d="M432.44,5.89c-54.52,0-102.08,28.3-126,73.76a12.29,12.29,0,0,0,10.84,18.06H420.46c27.74,0,50.41,20.71,50.41,50.41,0,29.5-22.67,50.2-50.41,50.2H317.18a12.29,12.29,0,0,0-10.83,18.06c23.88,45.39,71.5,73.77,126.09,73.77,78.37,0,142.4-58.51,142.4-141.86C574.84,64.4,510.81,5.89,432.44,5.89Z"/><path class="cls-1" d="M5.28,148.29c0-83.89,64-142.4,142.41-142.4S290.1,64.4,290.1,148.29c0,83.35-64,141.86-142.41,141.86S5.28,231.64,5.28,148.29Z"/></svg>